<svg xmlns="http://www.w3.org/2000/svg" viewBox="0 0 700 700">
  <defs>
    <radialGradient id="plasmaGrad" cx="50%" cy="50%" r="50%">
      <stop offset="0%" style="stop-color:#fef3c7"/>
      <stop offset="50%" style="stop-color:#fbbf24"/>
      <stop offset="100%" style="stop-color:#f59e0b"/>
    </radialGradient>
    <radialGradient id="lithiumGrad" cx="50%" cy="50%" r="50%">
      <stop offset="0%" style="stop-color:#fdba74"/>
      <stop offset="100%" style="stop-color:#ea580c"/>
    </radialGradient>
    <linearGradient id="steelGrad" x1="0%" y1="0%" x2="100%" y2="0%">
      <stop offset="0%" style="stop-color:#9ca3af"/>
      <stop offset="50%" style="stop-color:#d1d5db"/>
      <stop offset="100%" style="stop-color:#9ca3af"/>
    </linearGradient>
    <linearGradient id="insulationGrad" x1="0%" y1="0%" x2="100%" y2="0%">
      <stop offset="0%" style="stop-color:#fef3c7"/>
      <stop offset="100%" style="stop-color:#fde68a"/>
    </linearGradient>
    <pattern id="transducerPattern" patternUnits="userSpaceOnUse" width="20" height="20">
      <rect width="20" height="20" fill="#0891b2"/>
      <circle cx="10" cy="10" r="6" fill="#06b6d4"/>
    </pattern>
  </defs>
  
  <!-- Background -->
  <rect width="700" height="700" fill="#f8fafc"/>
  
  <!-- Title -->
  <text x="350" y="35" font-family="Arial, sans-serif" font-size="22" font-weight="bold" fill="#1e293b" text-anchor="middle">Reactor Vessel Cross-Section</text>
  
  <!-- Outer Steel Containment -->
  <circle cx="350" cy="370" r="280" fill="url(#steelGrad)" stroke="#6b7280" stroke-width="3"/>
  <text x="630" y="370" font-family="Arial, sans-serif" font-size="10" fill="#374151" text-anchor="start">Outer Steel</text>
  <text x="630" y="382" font-family="Arial, sans-serif" font-size="10" fill="#374151" text-anchor="start">Vessel (5-10mm)</text>
  <line x1="610" y1="370" x2="625" y2="370" stroke="#6b7280" stroke-width="1"/>
  
  <!-- Thermal Insulation Layer -->
  <circle cx="350" cy="370" r="255" fill="url(#insulationGrad)" stroke="#d97706" stroke-width="2"/>
  <text x="100" y="150" font-family="Arial, sans-serif" font-size="10" fill="#92400e" text-anchor="middle">Thermal</text>
  <text x="100" y="162" font-family="Arial, sans-serif" font-size="10" fill="#92400e" text-anchor="middle">Insulation</text>
  <text x="100" y="174" font-family="Arial, sans-serif" font-size="10" fill="#92400e" text-anchor="middle">(2-5 cm)</text>
  <line x1="130" y1="165" x2="180" y2="200" stroke="#d97706" stroke-width="1"/>
  
  <!-- Acoustic Transducer Ring -->
  <circle cx="350" cy="370" r="220" fill="url(#transducerPattern)" stroke="#0e7490" stroke-width="2"/>
  
  <!-- Lithium Volume -->
  <circle cx="350" cy="370" r="195" fill="url(#lithiumGrad)" stroke="#c2410c" stroke-width="2"/>
  <text x="250" y="250" font-family="Arial, sans-serif" font-size="12" font-weight="bold" fill="#7c2d12" text-anchor="middle">Liquid Lithium</text>
  <text x="250" y="265" font-family="Arial, sans-serif" font-size="10" fill="#7c2d12" text-anchor="middle">300-500°C</text>
  <text x="250" y="280" font-family="Arial, sans-serif" font-size="10" fill="#7c2d12" text-anchor="middle">50-200 L</text>
  
  <!-- Inner Acoustic Boundary -->
  <circle cx="350" cy="370" r="130" fill="none" stroke="#0891b2" stroke-width="4" stroke-dasharray="10,5"/>
  
  <!-- Vacuum Gap -->
  <circle cx="350" cy="370" r="115" fill="#e0f2fe" stroke="#0284c7" stroke-width="1"/>
  <text x="350" y="290" font-family="Arial, sans-serif" font-size="10" fill="#0369a1" text-anchor="middle">Vacuum Gap</text>
  <text x="350" y="302" font-family="Arial, sans-serif" font-size="9" fill="#0369a1" text-anchor="middle">(1-5 cm)</text>
  
  <!-- Fusion Core Chamber -->
  <circle cx="350" cy="370" r="80" fill="#fef3c7" stroke="#b45309" stroke-width="3"/>
  
  <!-- Cathode Grid -->
  <circle cx="350" cy="370" r="50" fill="none" stroke="#78350f" stroke-width="2"/>
  <line x1="310" y1="330" x2="390" y2="410" stroke="#78350f" stroke-width="2"/>
  <line x1="390" y1="330" x2="310" y2="410" stroke="#78350f" stroke-width="2"/>
  <line x1="300" y1="370" x2="400" y2="370" stroke="#78350f" stroke-width="2"/>
  <line x1="350" y1="320" x2="350" y2="420" stroke="#78350f" stroke-width="2"/>
  
  <!-- Plasma Glow -->
  <circle cx="350" cy="370" r="25" fill="url(#plasmaGrad)" opacity="0.8"/>
  <circle cx="350" cy="370" r="15" fill="#fef3c7"/>
  
  <!-- Transducer Labels -->
  <rect x="540" y="230" width="100" height="50" rx="4" fill="white" stroke="#0891b2" stroke-width="1"/>
  <text x="590" y="250" font-family="Arial, sans-serif" font-size="10" fill="#0e7490" text-anchor="middle" font-weight="bold">Acoustic</text>
  <text x="590" y="265" font-family="Arial, sans-serif" font-size="10" fill="#0e7490" text-anchor="middle">Transducers</text>
  <text x="590" y="277" font-family="Arial, sans-serif" font-size="9" fill="#0e7490" text-anchor="middle">(32-64 units)</text>
  <line x1="540" y1="255" x2="500" y2="280" stroke="#0891b2" stroke-width="1"/>
  
  <!-- Fusion Core Label -->
  <rect x="60" y="340" width="110" height="60" rx="4" fill="white" stroke="#b45309" stroke-width="1"/>
  <text x="115" y="360" font-family="Arial, sans-serif" font-size="10" fill="#92400e" text-anchor="middle" font-weight="bold">Fusion Core</text>
  <text x="115" y="375" font-family="Arial, sans-serif" font-size="9" fill="#92400e" text-anchor="middle">IEC Cathode Grid</text>
  <text x="115" y="390" font-family="Arial, sans-serif" font-size="9" fill="#92400e" text-anchor="middle">30-100 kV</text>
  <line x1="170" y1="370" x2="270" y2="370" stroke="#b45309" stroke-width="1"/>
  
  <!-- Dimension lines -->
  <line x1="350" y1="640" x2="70" y2="640" stroke="#374151" stroke-width="1"/>
  <line x1="350" y1="640" x2="630" y2="640" stroke="#374151" stroke-width="1"/>
  <line x1="70" y1="630" x2="70" y2="650" stroke="#374151" stroke-width="1"/>
  <line x1="630" y1="630" x2="630" y2="650" stroke="#374151" stroke-width="1"/>
  <text x="350" y="660" font-family="Arial, sans-serif" font-size="12" fill="#374151" text-anchor="middle">~1 meter total diameter</text>
  
  <!-- Neutron paths -->
  <g opacity="0.6">
    <path d="M375 370 Q 420 320 480 280" stroke="#ef4444" stroke-width="2" fill="none" stroke-dasharray="4,2"/>
    <path d="M370 345 Q 400 300 420 240" stroke="#ef4444" stroke-width="2" fill="none" stroke-dasharray="4,2"/>
    <path d="M375 395 Q 430 420 500 430" stroke="#ef4444" stroke-width="2" fill="none" stroke-dasharray="4,2"/>
    <circle cx="480" cy="280" r="4" fill="#ef4444"/>
    <circle cx="420" cy="240" r="4" fill="#ef4444"/>
    <circle cx="500" cy="430" r="4" fill="#ef4444"/>
  </g>
  <text x="520" y="445" font-family="Arial, sans-serif" font-size="9" fill="#ef4444">Neutron paths</text>
  
  <!-- Temperature gradient indicator -->
  <rect x="60" y="480" width="20" height="100" rx="2" fill="url(#lithiumGrad)"/>
  <text x="70" y="475" font-family="Arial, sans-serif" font-size="10" fill="#374151" text-anchor="middle">T</text>
  <text x="90" y="490" font-family="Arial, sans-serif" font-size="9" fill="#374151">500°C</text>
  <text x="90" y="575" font-family="Arial, sans-serif" font-size="9" fill="#374151">300°C</text>
</svg>

